# xmcd
#
# Track frame offsets:
#	150
#	9325
#	24050
#	30600
#	37950
#	45775
#	55800
#	62675
#	69300
#	75900
#	87650
#	99550
#	108275
#	116625
#	124900
#	134100
#	148800
#	158475
#	166200
#	174575
#	188475
#	200250
#	207525
#
# Disc length: 2883 seconds
#
# Revision: 0
# Processed by: cddbd v1.5.2PL0 Copyright (c) Steve Scherf et al.
# Submitted via: audiograbber 1.83.01
#
DISCID=280b4117
DTITLE=Bill Caswell - Old-Time Comedy Songs
DYEAR=1989
DGENRE=Bluegrass
TTITLE0=Arkansas Traveler (with Jawharp)
TTITLE1=Cabbage Head
TTITLE2=Chew-Tobacca Rag
TTITLE3=Bullfrog (with 1920 Ukelin)
TTITLE4=Johnson's Mule
TTITLE5=50¢
TTITLE6=Jaybird (with Pickin' Bow)
TTITLE7=Old Black Crow
TTITLE8=Movin' On
TTITLE9=Song of the Salvation Army (with 1902 Mandolin-Guitar)
TTITLE10=Leave The Purty Gals Alone
TTITLE11=Dunderback's Machine
TTITLE12=Little Brown Jug (with 1916 Bell Harp)
TTITLE13=Burglar And The Old Maid
TTITLE14=Possum Up A 'Simmon Tree
TTITLE15=Home Sweet Home (with 1920 Ukelin)
TTITLE16=Old Dan Tucker
TTITLE17=Barefoot Boy
TTITLE18=Who Broke The Lock?
TTITLE19=Hound Dog Song
TTITLE20=Preacher And The Bear
TTITLE21=Mother-In-Law
TTITLE22=Turkey In The Straw (with Jawharp and Clogging)
EXTD=
EXTT0=
EXTT1=
EXTT2=
EXTT3=
EXTT4=
EXTT5=
EXTT6=
EXTT7=
EXTT8=
EXTT9=
EXTT10=
EXTT11=
EXTT12=
EXTT13=
EXTT14=
EXTT15=
EXTT16=
EXTT17=
EXTT18=
EXTT19=
EXTT20=
EXTT21=
EXTT22=
PLAYORDER=
